<svg xmlns="http://www.w3.org/2000/svg" viewBox="0 0 2246.91 621.07">
    <defs>
    </defs>
    <g id="Layer_1-2" data-name="Layer 1">
        <path class="mask" d="M1849.68,95.13c-.8,2.7-1.8,5.35-2.37,8.1q-16.26,79.09-32.45,158.22-24.72,120-49.52,240.09c-2.48,12.05-4.72,24.15-7.26,36.19-1.1,5.19-2.35,10.32-7.73,13.28-7.72,4.25-16.34,2-20.27-6a68.3,68.3,0,0,1-3.43-9.32c-7.68-23.69-15.33-47.39-23.4-72.39h-11.67c-86,0-172-.15-258,.19-11.18,0-18.57-3.41-24.7-13-10.77-16.78-22.77-32.76-34.3-49.05-1.3-1.84-2.89-3.47-4.71-5.62-13.41,19-26.75,37.19-39.33,55.92-5.59,8.33-12.13,11.72-22.3,11.71q-643.41-.31-1286.82-.18a73.38,73.38,0,0,1-8-.11C4.44,462.26.08,457.57,0,449c-.08-8.11,4.63-13.61,13.09-14.73a83.8,83.8,0,0,1,11-.24H1293.89c13.61,0,13.65,0,21.61-11.28,13.4-19,26.64-38.18,40.13-57.14,9.77-13.74,19.54-13.8,29.08-.33,14.23,20.09,28.33,40.26,42.51,60.38,1.92,2.71,4,5.32,6.29,8.37h270.8c2.67,0,5.35-.18,8,.06,8,.72,13.65,4.06,16.06,12.46a180.32,180.32,0,0,0,12,31.09c.82-3.62,1.68-7.22,2.43-10.86q20.22-98.1,40.4-196.21,19.61-95.19,39.2-190.39c4.62-22.46,9.15-44.93,13.89-67.37,2-9.63,7-13.37,15.94-12.77,7.15.48,11,3.61,12.81,11.6,2.67,11.64,4.94,23.37,7.29,35.09q29,145,58,289.92,17.14,85.63,34.37,171.26c.74,3.69,1.69,7.35,2.54,11l2.43,0c.82-3.29,1.84-6.54,2.43-9.87,3.49-19.62,6.85-39.27,10.3-58.89,2.12-12,6.55-15.9,18.79-16.15,9-.18,18,0,27,0h27.63c3.16-6.59,6.39-13.07,9.4-19.65q17.7-38.53,35.29-77.11c1.25-2.73,2.48-5.47,3.94-8.08,6.48-11.55,19.63-11.78,26.09-.13,4.68,8.42,8.54,17.3,12.65,26,12.2,25.87,24.34,51.76,36.79,78.27,2.32.21,4.89.63,7.46.64,13.33.07,26.66,0,40,.09a32.65,32.65,0,0,1,9.82,1.3,14.14,14.14,0,0,1,9.59,14.71,14.47,14.47,0,0,1-11.94,13,33,33,0,0,1-6,.25c-18,0-36-.24-54,.12-9.69.19-15.2-4.06-19.12-12.73-11.23-24.86-23-49.45-34.67-74.12a53.91,53.91,0,0,0-3.83-5.82c-6.83,14.73-13.26,28.57-19.66,42.42-6,13-12.33,25.82-17.81,39-3.49,8.41-9.26,11.36-17.88,11.19-13.66-.26-27.33-.07-41-.07h-10.8c-1.28,5.86-2.64,11.21-3.6,16.63-7.45,42.19-15,84.37-22.09,126.63-2.1,12.56-12.4,16.71-20.73,13.32-5.63-2.29-7.67-7-8.76-12.44q-5.2-25.92-10.42-51.84-23.71-118.09-47.41-236.22-21.37-106.89-42.61-213.82c-.71-3.52-1.66-7-2.5-10.5Z"/>
    </g>
</svg>