<svg xmlns="http://www.w3.org/2000/svg" viewBox="0 0 2252.9 2154.78"><defs><style>.cls-1{fill:#d9b02e;}.cls-2{fill:#81b63c;}.cls-3{fill:#82b73d;}.cls-4{fill:#1c3c6b;}.cls-5{fill:#1f3d6c;}.cls-6{fill:#82b73c;}.cls-7{fill:#213e6d;}.cls-8{fill:#203e6d;}.cls-9{fill:#284e6d;}.cls-10{fill:#37606c;}.cls-11{fill:#588460;}.cls-12{fill:#4a7368;}.cls-13{fill:#679554;}.cls-14{fill:#74a646;}.cls-15{fill:#6e9f4c;}.cls-16{fill:#4c7767;}.cls-17{fill:#78a64c;}.cls-18{fill:#5d8a5d;}.cls-19{fill:#527272;}.cls-20{fill:#244c6e;}.cls-21{fill:#6a935f;}.cls-22{fill:#355e6f;}.cls-23{fill:#537f67;}</style></defs><g id="Layer_2" data-name="Layer 2"><g id="Layer_1-2" data-name="Layer 1"><path class="cls-1" d="M1855.66,1628.84c-.8,2.7-1.8,5.36-2.36,8.1q-16.27,79.1-32.46,158.22-24.71,120.06-49.51,240.09c-2.49,12-4.72,24.15-7.27,36.19-1.1,5.19-2.34,10.32-7.73,13.29-7.72,4.25-16.34,2-20.27-5.95a68.88,68.88,0,0,1-3.42-9.33c-7.69-23.69-15.33-47.39-23.41-72.38h-11.66c-86,0-172-.16-258,.18-11.19,0-18.57-3.41-24.71-13-10.77-16.78-22.77-32.76-34.29-49-1.31-1.83-2.9-3.47-4.72-5.62-13.41,19-26.75,37.19-39.33,55.93-5.59,8.32-12.13,11.71-22.3,11.71q-643.41-.32-1286.81-.19a76.16,76.16,0,0,1-8-.1c-9-1-13.38-5.68-13.46-14.21-.08-8.12,4.62-13.61,13.09-14.74a83.68,83.68,0,0,1,11-.24H1299.88c13.6,0,13.64,0,21.61-11.28,13.4-19,26.64-38.17,40.13-57.14,9.76-13.73,19.54-13.8,29.08-.33,14.22,20.09,28.32,40.26,42.51,60.38,1.91,2.72,4,5.32,6.28,8.37H1710.3c2.67,0,5.35-.17,8,.06,8,.72,13.65,4.06,16.07,12.47a180.13,180.13,0,0,0,12,31.09c.81-3.62,1.68-7.23,2.43-10.86q20.21-98.12,40.4-196.22,19.59-95.19,39.19-190.39c4.63-22.45,9.16-44.93,13.89-67.36,2-9.64,7-13.38,15.94-12.78,7.16.48,11,3.61,12.82,11.6,2.67,11.64,4.94,23.38,7.28,35.09q29,145,58,289.92,17.14,85.65,34.37,171.26c.75,3.7,1.69,7.35,2.55,11l2.42,0c.82-3.29,1.84-6.54,2.44-9.87,3.48-19.62,6.84-39.27,10.3-58.89,2.11-12,6.55-15.9,18.78-16.15,9-.18,18,0,27,0h27.62c3.17-6.59,6.39-13.07,9.41-19.64q17.69-38.55,35.28-77.12c1.25-2.73,2.49-5.47,3.95-8.07,6.47-11.56,19.63-11.78,26.09-.14,4.67,8.43,8.54,17.3,12.65,26,12.19,25.87,24.33,51.76,36.79,78.28,2.31.2,4.88.62,7.45.63,13.34.07,26.67,0,40,.09a32.9,32.9,0,0,1,9.81,1.3,14.14,14.14,0,0,1,9.59,14.71,14.47,14.47,0,0,1-11.94,13,33,33,0,0,1-6,.26c-18,0-36-.25-54,.11-9.69.19-15.2-4.06-19.12-12.73-11.23-24.86-23-49.45-34.68-74.12-.81-1.74-2.11-3.24-3.82-5.82-6.83,14.73-13.26,28.57-19.66,42.42-6,13-12.34,25.82-17.82,39-3.49,8.41-9.26,11.36-17.87,11.2-13.66-.27-27.33-.07-41-.07h-10.8c-1.28,5.85-2.64,11.2-3.59,16.62-7.45,42.2-15,84.37-22.09,126.63-2.1,12.57-12.4,16.71-20.74,13.32-5.63-2.28-7.66-7-8.75-12.44q-5.21-25.92-10.42-51.83-23.71-118.11-47.41-236.22-21.39-106.9-42.62-213.83c-.7-3.52-1.66-7-2.49-10.49Z" transform="translate(0 0)"/><path class="cls-2" d="M857.47,675H948c-5.49-9.17-13.53-13-20-19.75l44.86-25.51c9.65,6.84,17,15.44,23.49,24.65,39.6,56.29,46,117.06,23.83,181.51-12.39,36-35.26,63.85-66.77,84.77-8.87,5.89-17.95,11.51-27.22,16.76q-114.68,65-229.45,129.9c-20.57,11.65-41,23.51-61.69,35-4.57,2.54-6.6,5.29-6.59,10.83q.28,139,.15,278c0,1.65.19,3.29.33,5.5l150,86.58c.19-5.51.43-9.31.43-13.12,0-82.32.12-164.64-.15-247,0-7.86,2-12.47,9.22-16.48,28.23-15.66,56-32.14,84-48.29,2.57-1.49,5.23-2.83,8.28-4.48l47.8,27.6-99.88,58.74v11.51q0,115.49,0,231c0,23.54-13.43,41.94-34.69,48.19-14.28,4.19-27.59,1.75-40.3-5.62Q703,1495.93,652.4,1466.76c-15.28-8.83-30.52-17.74-45.86-26.46-17.82-10.13-26.46-25.07-26.41-45.82q.36-143,0-286c-.06-21.19,8.82-36.24,26.93-46.56q132.78-75.66,265.54-151.4c16.19-9.23,32.64-18,48.72-27.42,6.29-3.68,12-8.37,17.7-13,1.79-1.46,2.56-4.17,3.8-6.3,4.61-.55,5.81-3.59,5.77-7.7-.07-7.26-.24-14.53.08-21.78.17-3.79-1.52-6.19-4.11-8.38h26.84c4.48-12.63,10.28-23.72,9.16-36.66-6.2-.51-12.39-1.07-18.59-1.5-4.17-.29-8.36-.4-13.12-.62-.27-12.23-.74-23.34.37-35.48,8.15,0,15.4.17,22.64-.07,3.53-.12,7-1,10.55-1.53-.43-12.59-3.81-24.42-9-36.61H948.55V676H918.8l-24-.12-30-.14-7.42-.78Z" transform="translate(0 0)"/><path class="cls-3" d="M189,1157.73l56.46,32.57q131.51,75.85,263,151.72a85.68,85.68,0,0,1,8.5,5.23,24.52,24.52,0,0,1,7,31.29,24.26,24.26,0,0,1-30,11.17,53.65,53.65,0,0,1-8-4q-164.37-94.85-328.83-189.54c-12.87-7.39-17.95-17-17.94-31.55q.33-397.39,0-794.81c0-14.54,5-24.19,17.88-31.58Q322.67,243.5,487.8,148c7.7-4.45,15.63-6.15,23.87-3.09,8.72,3.22,14.08,9.66,15.31,19.26,1.2,9.39-1.61,17.21-9.16,22.84-4.51,3.37-9.59,6-14.5,8.82L197.73,371.65c-2.87,1.65-5.69,3.4-8.75,5.23Z" transform="translate(0 0)"/><path class="cls-4" d="M857.47,675s-.1,0-.08,0l-29.45.93c-3.61-.15-7.23-.52-10.83-.38-6.46.25-16.15,11.09-15.78,17.42.39,6.86.82,13.71,1.24,20.57l-14.8.77c-2.76,10-5.55,20.06-8.32,30.11-2.26,4.91-.68,7.26,4.73,7.29,6.13,0,12.27.22,18.4.34v35.72c-6.12,0-11-.29-15.84.11-2.67.21-5.25,1.56-7.88,2.4,2,12,4.15,24,9.27,35l12.45.73c.67,3.15,1.7,6.27,1.93,9.45.33,4.57-.06,9.19.11,13.77.38,10,5.25,14.76,15.31,14.85,3.27,0,6.54-.2,9.82-.31l-15.57,1c3.12,7.32,9.82,10.37,14.86,16.61l-44.1,25.08c-10.39-9.2-19.08-19.29-25.46-30.94-37.1-67.81-39.87-136.18-2.1-204.76,12.45-22.61,30.08-40.8,51.46-54.95,20-13.22,40.48-25.67,61.24-37.62q127.65-73.51,255.59-146.51c2.6-1.49,5.14-3.07,8.06-4.82V136L981.21,49.1V320.44c-2,1.35-3.55,2.55-5.23,3.52-29.39,17-58.87,33.85-88.13,51.07-5.19,3.05-9.15,3.46-14.44.18-13.26-8.23-26.92-15.82-41.58-24.34l100.72-58.53V281.78c0-77.66.25-155.32-.14-233-.12-25.43,21-50.43,50.83-48.62A54.06,54.06,0,0,1,1005.87,7c50.08,28.43,99.82,57.46,149.71,86.23,17.15,9.89,25.41,24.68,25.41,44.39q-.06,143.49,0,287c0,21.06-9.15,36-27.31,46.4Q1020.18,547.3,886.87,624c-18.16,10.45-35.89,21.69-53.48,33.1-6.81,4.41-12.67,10.28-19,15.49l.78,2.4Z" transform="translate(0 0)"/><path class="cls-5" d="M1608.6,766.87c0,132.66-.16,265.31.23,398,.05,15.26-5.69,24.5-18.76,32q-156.78,90-313.09,180.71a81.44,81.44,0,0,1-7.92,4.24,24.23,24.23,0,0,1-31.15-10.1c-6.47-11.46-3.42-25.4,7.72-32.55,9.24-5.93,18.92-11.17,28.43-16.67q138.36-79.9,276.83-159.63c6.3-3.62,8.73-7.4,8.73-14.71q-.28-380.47,0-760.94c0-7.68-2.31-11.71-9-15.56q-150.2-86.37-300.09-173.26c-6.24-3.61-11.67-7.62-14.28-14.64-3.48-9.36-1.76-17.95,4.73-25.14s14.91-9.94,24.48-7a49.71,49.71,0,0,1,9.93,4.54q158.25,91.38,316.53,182.74c11.66,6.71,16.87,15.44,16.84,29Q1608.35,567.39,1608.6,766.87Z" transform="translate(0 0)"/><path class="cls-2" d="M828.58,293.51,780.1,321.94c-1.41-9.9-.56-18.75-.7-27.51-.15-9,0-18,0-27V49.27l-150.75,87v9.89c0,90,.1,180-.16,269.93,0,7.53,1.95,11.76,8.79,15.66C698,466.39,758.46,501.47,819,536.43c4,2.3,7.92,4.72,13.24,7.9-4.63,2.81-8.09,5-11.66,7.06-9.83,5.61-19.93,10.8-29.46,16.87-5.52,3.51-9.63,3.44-15.33.07-32.4-19.11-65.09-37.75-97.67-56.56-23.64-13.65-47.19-27.46-70.94-40.92-18.17-10.31-27.11-25.31-27.06-46.48q.39-143,0-285.93c-.06-20.74,8.49-35.73,26.22-45.94,49-28.26,98.21-56.29,147-84.95,25.81-15.16,53.76-5.78,66.59,13.07,5.19,7.62,8.54,16,8.56,25.19C828.64,128.12,828.58,210.42,828.58,293.51Z" transform="translate(0 0)"/><path class="cls-4" d="M932.56,1238.46l47.93-27.93v278.19c51.63-29.42,101.44-58.51,151.69-87.4v-10.23c0-91.65-.13-183.31.21-275,0-7.87-2.63-11.67-9.2-15.42q-93.21-53.26-186-107.17c-2.3-1.32-4.52-2.78-8.2-5.06L978,960.6c15,8.6,29.66,17,44.34,25.52,43.53,25.13,86.92,50.5,130.63,75.31,19.34,11,28.19,26.79,28.12,49q-.46,143.47,0,287c.06,21.82-8.67,37.48-27.59,48.29-49.13,28.07-98,56.7-147.12,84.72-29.92,17-64.51,2.4-72.6-30.25a42,42,0,0,1-1.18-9.87C932.54,1406.65,932.56,1323,932.56,1238.46Z" transform="translate(0 0)"/><path class="cls-3" d="M1014,1911.6V1640.29c2.87-.18,5.16-.43,7.44-.43,38,0,76-.16,114,0a111,111,0,0,1,48.15,11.39c46.51,22.44,47.11,85,13.44,112.45-2.23,1.82-4.42,3.68-7.41,6.18,3.41,1.87,5.88,3.37,8.46,4.63,51.19,25,46,95.2,4.48,120.08-17.64,10.57-36.81,15.08-57,16.43-8,.53-16,.5-24,.51q-48.48.09-97,0Zm40.66-39.63a15.16,15.16,0,0,0,3,1c26.94.07,53.89.46,80.83,0,12.26-.22,24.44-2.16,35.49-8.51,13.87-8,20-19.87,18.84-35.66-1-14.72-9.73-23.52-22.64-28.83-10.89-4.49-22.37-6.27-34.1-6.3q-37.42-.12-74.85,0a48.74,48.74,0,0,0-6.6.87Zm-.07-117.74c1.56.65,2.16,1.11,2.75,1.11,24,.07,48,.45,71.91,0,11-.2,21.85-2.36,31.52-8.3,14.06-8.62,19.39-21.58,17.53-37.44-1.71-14.53-11-23.49-24.47-27.26a124,124,0,0,0-29.45-4.28c-20.63-.63-41.29-.21-61.93-.16-2.55,0-5.09.41-7.86.65Z" transform="translate(0 0)"/><path class="cls-2" d="M1286.61,1911.05h-39.87V1640.46h38.85l90.62,135.76,91-136H1506v270.57h-40.74c-.9-31.85-.26-64-.38-96.17-.12-31.87,0-63.75,0-98.16-3.2,4.1-5,6.2-6.59,8.49q-35.7,52.44-71.34,104.93c-1.32,1.93-2.6,3.88-4,5.74-4.57,6-9.89,6.09-14.22-.19-13.8-20-27.43-40.14-41.12-60.23q-16.89-24.76-33.77-49.54c-1.67-2.44-3.53-4.77-6.93-9.34-.52,12.67-.22,23.06-.27,33.43-.06,10.66,0,21.32,0,32v129.27Z" transform="translate(0 0)"/><path class="cls-6" d="M1574.62,1793.65v78.24h159.3V1911H1533.59V1641.41c6.6-2,183.83-2.61,198.46-.59v37.45H1574.83v76.45h140.75v38.93Z" transform="translate(0 0)"/><path class="cls-7" d="M506.07,1640.27h40.27v114.09h138c.36-12.35.13-24.83.17-37.31,0-12.66,0-25.31,0-38v-38.53H725.1v270.69H684.81V1795.07h-138v115.86H506.07Z" transform="translate(0 0)"/><path class="cls-8" d="M871.53,1759.79,992,1911.61c-18,0-33.81.26-49.6-.27-2.55-.08-5.47-3.27-7.4-5.68-17.94-22.34-35.7-44.84-53.51-67.28-12.82-16.14-25.66-32.27-39.15-49.25-7.45,7.41-14.47,14.34-21.42,21.36-6.56,6.63-12.76,13.65-19.65,19.92-5.55,5.06-8.08,10.45-7.81,18.21.61,17.32.19,34.66.19,52V1911H754.17c-2.07-6.57-2.95-251.86-.76-271.16h40.42v143.66c7.19-6.69,13.71-12.24,19.63-18.36q47.55-49.25,94.85-98.74,10.38-10.82,20.66-21.71c2.8-3,5.56-5.09,10.23-5,15.65.36,31.31.14,49.27.14-19.82,21.25-39.27,40.43-58.36,59.93C910.79,1719.55,891.51,1739.33,871.53,1759.79Z" transform="translate(0 0)"/><path class="cls-8" d="M441.45,1640.26H483v10.2q0,72.48,0,145c0,17.8-2.22,35.23-8.39,52q-19.08,51.8-72.92,64.5a139.93,139.93,0,0,1-65.3,0c-38.66-9.25-63.94-33.23-75.24-71a149.57,149.57,0,0,1-6.08-40.28c-.69-50.31-.27-100.63-.27-151v-9.21h41.49v11c0,46.65-.09,93.3.08,139.95a151.61,151.61,0,0,0,1.88,24.84c6.7,39.32,32.31,60.65,72.16,60a93.9,93.9,0,0,0,24.59-3.48c28.48-8.33,41.13-29.77,45.34-57.43a127.16,127.16,0,0,0,1-18.93q.12-72.48,0-145Z" transform="translate(0 0)"/><path class="cls-7" d="M1476.61,767.64v230.8c0,3,.11,6-.11,9-1,13.16-10.46,22.55-23.09,23-13.74.51-23.72-7.72-25.6-21.3a65.39,65.39,0,0,1-.35-9q0-232.8,0-465.59a58.7,58.7,0,0,1,.65-9.93c2.14-12.39,12.27-20.68,24.55-20.32a24.33,24.33,0,0,1,23.67,21.53,91.3,91.3,0,0,1,.26,11Q1476.61,652.23,1476.61,767.64Z" transform="translate(0 0)"/><path class="cls-5" d="M221.48,1837.21l26.38,27.55c-21.3,23.47-46.58,41.35-78.89,47.83-34.79,7-68.43,3.88-99.68-13.65-35.05-19.66-57-49.69-65.32-88.94-10.21-48.14-1.14-92.17,32-129.58,26.09-29.47,59.48-43.78,98.86-44.89,41.52-1.17,77,12.6,106.81,41.36,1.19,1.15,2.42,2.29,3.56,3.5a18.44,18.44,0,0,1,1.51,2.53l-27.61,29.58c-6.4-5.47-12-10.61-18-15.3-23.43-18.42-49.94-26.21-79.48-21.27-31.87,5.32-55.07,23.21-68.61,52.26-14.75,31.66-14.64,64.14.89,95.52,29.29,59.21,98.44,66.15,142,34.32C204.49,1851.78,212.4,1844.65,221.48,1837.21Z" transform="translate(0 0)"/><path class="cls-2" d="M503.23,1243.07c-5.11-2.15-10.51-3.81-15.29-6.54q-65.88-37.65-131.56-75.62Q306.19,1132,256,1103.08c-12-6.92-16.59-16.57-13.92-28.09,3.34-14.37,17.58-22.36,31.52-17.51a53.42,53.42,0,0,1,8.94,4.34q113.76,65.52,227.49,131.11a87.63,87.63,0,0,1,8.53,5.18,23.7,23.7,0,0,1,8.34,26.7C523.53,1235.35,514.63,1241.89,503.23,1243.07Z" transform="translate(0 0)"/><path class="cls-2" d="M269.77,477.64c-13.85-.22-23.06-6.87-26.28-16.51A24.2,24.2,0,0,1,253,433c6.65-4.41,13.73-8.16,20.65-12.15q106.84-61.62,213.67-123.26c7.13-4.12,14.24-7.26,22.68-4.75,9.9,2.93,16,9.5,17.74,19.56s-1.9,18.51-10.37,24.23c-6.33,4.28-13.19,7.78-19.82,11.61Q391.18,409.62,284.75,471C279.12,474.19,272.84,476.29,269.77,477.64Z" transform="translate(0 0)"/><path class="cls-9" d="M827.75,863.8c-3.28.11-6.55.34-9.82.31-10.06-.09-14.93-4.8-15.31-14.85-.17-4.58.22-9.2-.11-13.77-.23-3.18-1.26-6.3-1.93-9.45h28c4.19,1.94,6.43,4.63,6.15,9.84-.49,9.29-.11,18.63-.1,28Z" transform="translate(0 0)"/><path class="cls-10" d="M834.6,863.82c0-9.32-.39-18.66.1-28,.28-5.21-2-7.9-6.15-9.84h34l.09,37.76Z" transform="translate(0 0)"/><path class="cls-11" d="M910.63,863.8h-24c0-9.5-.23-19,0-28.5.12-4-.95-7-4.11-9.29h26c.69,3.45,1.85,6.89,2,10.36C910.77,845.52,910.61,854.66,910.63,863.8Z" transform="translate(0 0)"/><path class="cls-12" d="M882.56,826c3.16,2.31,4.23,5.3,4.11,9.29-.28,9.49-.06,19,0,28.5h-24L862.5,826Z" transform="translate(0 0)"/><path class="cls-13" d="M910.63,863.8c0-9.14.14-18.28-.16-27.41-.11-3.47-1.27-6.91-2-10.36h20c.68,3.45,1.85,6.88,2,10.35.3,9.13.14,18.28.16,27.42Z" transform="translate(0 0)"/><path class="cls-14" d="M930.64,863.79c0-9.14.14-18.29-.16-27.42-.12-3.47-1.29-6.9-2-10.35l16,0c2.59,2.19,4.28,4.59,4.11,8.38-.32,7.25-.15,14.52-.08,21.78,0,4.11-1.16,7.15-5.77,7.7Z" transform="translate(0 0)"/><path class="cls-10" d="M864.57,713.52l-36,0q-.33-18.79-.67-37.6l29.45-.93,7.4.78Q864.69,694.65,864.57,713.52Z" transform="translate(0 0)"/><path class="cls-15" d="M948.55,713.52H918.66q.06-18.74.14-37.47h29.75Z" transform="translate(0 0)"/><path class="cls-16" d="M864.57,713.52q.12-18.87.22-37.73l30,.13q-.07,18.8-.16,37.6Z" transform="translate(0 0)"/><path class="cls-17" d="M980.54,789.33l-50.15-.15c-3.14-1.94-4-4.77-3.89-8.38.22-7.26,0-14.53.1-21.8.07-3.48-.16-6.62-3.83-8.29l59.62-.58c-3.52.53-7,1.41-10.55,1.53-7.24.24-14.49.07-22.64.07-1.11,12.14-.64,23.25-.37,35.48,4.76.22,8.95.33,13.12.62C968.15,788.26,974.34,788.82,980.54,789.33Z" transform="translate(0 0)"/><path class="cls-18" d="M894.61,713.52q.07-18.79.16-37.6l24,.12q-.07,18.74-.14,37.47Z" transform="translate(0 0)"/><path class="cls-19" d="M864.81,789.24l-33.95,0,22.95-2.63V752.11H828.48l-25.9-.05c-6.13-.12-12.27-.3-18.4-.34-5.41,0-7-2.38-4.73-7.29.21,1.61.43,3.21.84,6.18h82.82l15.58,1.31c-.14,11.67-.28,23.33-.42,34.7Z" transform="translate(0 0)"/><path class="cls-20" d="M802.58,752.06l25.9,0v34.53l-19.63,2.63-30,1c2.63-.84,5.21-2.19,7.88-2.4,4.83-.4,9.72-.11,15.84-.11Z" transform="translate(0 0)"/><path class="cls-20" d="M827.94,675.94q.33,18.79.67,37.6h-26c-.42-6.86-.85-13.71-1.24-20.57-.37-6.33,9.32-17.17,15.78-17.42C820.71,675.42,824.33,675.79,827.94,675.94Z" transform="translate(0 0)"/><path class="cls-21" d="M878.69,751.92l-15.58-1.31,59.67.1c3.66,1.67,3.89,4.81,3.82,8.29-.14,7.27.12,14.54-.1,21.8-.12,3.61.75,6.44,3.89,8.38l-37.51,0,7-2.9V751.92Z" transform="translate(0 0)"/><path class="cls-22" d="M808.85,789.26l19.63-2.63V752.1h25.33v34.55l-22.95,2.63Z" transform="translate(0 0)"/><path class="cls-23" d="M878.69,751.92h21.19v34.39l-7,2.9-28.07,0,13.46-2.62C878.41,775.25,878.55,763.59,878.69,751.92Z" transform="translate(0 0)"/></g></g></svg>